<svg xmlns="http://www.w3.org/2000/svg" xmlns:xlink="http://www.w3.org/1999/xlink" width="2000" zoomAndPan="magnify" viewBox="0 0 1500 749.999995" height="1000" preserveAspectRatio="xMidYMid meet" version="1.0"><defs><clipPath id="1dcf743df8"><path d="M 13.019531 20.984375 L 1486.730469 20.984375 L 1486.730469 344 L 13.019531 344 Z M 13.019531 20.984375 " clip-rule="nonzero"/></clipPath><clipPath id="04035a3de9"><path d="M 13.019531 406 L 1486.730469 406 L 1486.730469 728.984375 L 13.019531 728.984375 Z M 13.019531 406 " clip-rule="nonzero"/></clipPath></defs><g clip-path="url(#1dcf743df8)"><path fill="#000000" d="M 355.886719 167.980469 L 524 343.058594 L 804.816406 168.296875 L 972.644531 343.058594 L 1251.5 169.535156 L 1400.480469 340.675781 L 1486.714844 265.578125 L 1273.769531 20.984375 L 990.933594 196.996094 L 823.078125 22.222656 L 542.292969 196.996094 L 374.765625 22.539062 L 13.019531 243.003906 L 72.539062 340.660156 L 355.886719 167.980469 " fill-opacity="1" fill-rule="nonzero"/></g><g clip-path="url(#04035a3de9)"><path fill="#000000" d="M 990.933594 582.945312 L 823.078125 408.1875 L 542.292969 582.945312 L 374.765625 408.503906 L 13.019531 628.953125 L 72.539062 726.609375 L 355.886719 553.933594 L 524 729.023438 L 804.816406 554.265625 L 972.644531 729.023438 L 1251.5 555.5 L 1400.480469 726.625 L 1486.714844 651.527344 L 1273.769531 406.933594 L 990.933594 582.945312 " fill-opacity="1" fill-rule="nonzero"/></g></svg>