<svg xmlns="http://www.w3.org/2000/svg" xmlns:xlink="http://www.w3.org/1999/xlink" width="2000" zoomAndPan="magnify" viewBox="0 0 1500 1199.999942" height="1600" preserveAspectRatio="xMidYMid meet" version="1.0"><defs><clipPath id="63d853d087"><path d="M 41.082031 16.03125 L 1458.582031 16.03125 L 1458.582031 1183.78125 L 41.082031 1183.78125 Z M 41.082031 16.03125 " clip-rule="nonzero"/></clipPath></defs><g clip-path="url(#63d853d087)"><path fill="#000000" d="M 686.535156 1183.394531 C 670.921875 766.289062 630.203125 464.269531 540.496094 285.714844 C 501.96875 209.035156 436.644531 117.648438 344.167969 117.648438 C 232.902344 117.648438 142.390625 213.542969 142.390625 331.441406 L 41.082031 331.441406 C 41.082031 157.6875 177.050781 16.320312 344.167969 16.320312 C 490.488281 16.320312 663.226562 138.242188 749.84375 643.765625 C 836.457031 138.242188 1009.195312 16.320312 1155.515625 16.320312 C 1322.632812 16.320312 1458.601562 157.6875 1458.601562 331.441406 L 1357.292969 331.441406 C 1357.292969 213.542969 1266.78125 117.648438 1155.515625 117.648438 C 1063.054688 117.648438 997.714844 209.035156 959.191406 285.714844 C 869.484375 464.269531 828.765625 766.289062 813.148438 1183.394531 L 686.535156 1183.394531 " fill-opacity="1" fill-rule="nonzero"/></g></svg>