<svg xmlns="http://www.w3.org/2000/svg" xmlns:xlink="http://www.w3.org/1999/xlink" width="2000" zoomAndPan="magnify" viewBox="0 0 1500 1124.99995" height="1500" preserveAspectRatio="xMidYMid meet" version="1.0"><defs><clipPath id="6ff952c0ac"><path d="M 39.148438 43 L 1436 43 L 1436 731 L 39.148438 731 Z M 39.148438 43 " clip-rule="nonzero"/></clipPath><clipPath id="46d83662f0"><path d="M 64 401 L 1461.148438 401 L 1461.148438 1088.152344 L 64 1088.152344 Z M 64 401 " clip-rule="nonzero"/></clipPath></defs><g clip-path="url(#6ff952c0ac)"><path fill="#000000" d="M 245.398438 274.628906 L 245.851562 275.5625 C 249.554688 273.757812 253.265625 272.082031 256.964844 270.296875 C 276.757812 263.292969 297.953125 259.28125 320.113281 259.28125 C 424.921875 259.28125 510.1875 344.539062 510.1875 449.339844 C 510.1875 554.136719 424.921875 639.394531 320.113281 639.394531 C 215.296875 639.394531 130.042969 554.136719 130.042969 449.339844 C 130.042969 371.058594 177.636719 303.710938 245.398438 274.628906 Z M 320.113281 730.269531 C 475.035156 730.269531 601.070312 604.242188 601.070312 449.339844 C 601.070312 338.027344 535.992188 241.621094 441.878906 196.183594 C 759.4375 94.089844 1079.425781 120.46875 1395.730469 275.5625 L 1435.757812 193.96875 C 1033.757812 -3.152344 626.179688 -5.929688 224 185.347656 C 116.257812 224.679688 39.148438 328.171875 39.148438 449.339844 C 39.148438 604.242188 165.183594 730.269531 320.113281 730.269531 " fill-opacity="1" fill-rule="nonzero"/></g><g clip-path="url(#46d83662f0)"><path fill="#000000" d="M 1254.953125 857.410156 L 1254.484375 856.476562 C 1250.785156 858.296875 1247.074219 859.972656 1243.375 861.753906 C 1223.582031 868.746094 1202.386719 872.757812 1180.234375 872.757812 C 1075.417969 872.757812 990.148438 787.5 990.148438 682.703125 C 990.148438 577.902344 1075.417969 492.644531 1180.234375 492.644531 C 1285.042969 492.644531 1370.308594 577.902344 1370.308594 682.703125 C 1370.308594 760.992188 1322.710938 828.328125 1254.953125 857.410156 Z M 1180.234375 401.769531 C 1025.304688 401.769531 899.269531 527.796875 899.269531 682.703125 C 899.269531 794.023438 964.347656 890.417969 1058.460938 935.855469 C 740.902344 1037.949219 420.910156 1011.570312 104.609375 856.476562 L 64.582031 938.070312 C 268.601562 1038.117188 474.085938 1088.152344 679.546875 1088.152344 C 878.914062 1088.152344 1078.277344 1040.90625 1276.339844 946.703125 C 1384.078125 907.359375 1461.191406 803.878906 1461.191406 682.703125 C 1461.191406 527.796875 1335.164062 401.769531 1180.234375 401.769531 " fill-opacity="1" fill-rule="nonzero"/></g></svg>