<svg xmlns="http://www.w3.org/2000/svg" xmlns:xlink="http://www.w3.org/1999/xlink" width="2000" zoomAndPan="magnify" viewBox="0 0 1500 1349.999938" height="1800" preserveAspectRatio="xMidYMid meet" version="1.0"><defs><clipPath id="2766fd1522"><path d="M 46.03125 25.195312 L 1453.78125 25.195312 L 1453.78125 1324.777344 L 46.03125 1324.777344 Z M 46.03125 25.195312 " clip-rule="nonzero"/></clipPath></defs><g clip-path="url(#2766fd1522)"><path fill="#000000" d="M 1199.441406 1102.550781 C 1122.890625 1102.550781 1058.1875 1053.660156 1058.1875 995.886719 C 1058.1875 938.101562 1122.890625 889.371094 1199.441406 889.371094 C 1276.136719 889.371094 1340.828125 938.101562 1340.828125 995.886719 C 1340.828125 1053.660156 1276.136719 1102.550781 1199.441406 1102.550781 Z M 1199.441406 776.347656 C 1143.363281 776.347656 1091.53125 792.320312 1049.441406 819.007812 C 1044.914062 637.898438 1036.167969 353.234375 1025.574219 257.882812 L 1025.292969 255.765625 C 1005.371094 122.117188 912.988281 25.195312 805.925781 25.195312 C 706.496094 25.195312 601.402344 58.246094 537.84375 350.835938 C 474.289062 58.246094 369.058594 25.195312 269.476562 25.195312 C 144.195312 25.195312 46.03125 150.367188 46.03125 310.140625 L 159.019531 310.140625 C 159.019531 216.902344 209.601562 138.222656 269.476562 138.222656 C 321.175781 138.222656 458.75 138.222656 481.5 931.46875 L 594.488281 931.46875 C 617.089844 138.222656 754.230469 138.222656 805.925781 138.222656 C 855.644531 138.222656 901.695312 195.429688 913.417969 271.441406 C 926.828125 394.765625 937.421875 847.976562 939.402344 953.925781 C 922.03125 983.742188 909.605469 1013.546875 898.863281 1041.949219 C 895.617188 1050.277344 892.652344 1058.472656 889.6875 1066.519531 C 870.480469 1118.792969 855.644531 1158.910156 820.617188 1183.644531 C 788.421875 1206.386719 739.121094 1216.128906 653.382812 1210.484375 L 653.382812 1323.496094 C 667.503906 1324.492188 680.929688 1324.777344 693.785156 1324.777344 C 859.605469 1324.777344 925.144531 1259.640625 963.554688 1183.644531 C 974.011719 1163.007812 982.339844 1141.683594 990.25 1120.492188 C 1010.738281 1145.914062 1037.003906 1167.535156 1067.796875 1183.644531 C 1106.21875 1203.984375 1151.273438 1215.5625 1199.441406 1215.5625 C 1247.742188 1215.5625 1292.941406 1203.835938 1331.5 1183.644531 C 1404.816406 1144.929688 1453.816406 1075.28125 1453.816406 995.886719 C 1453.816406 874.8125 1339.695312 776.347656 1199.441406 776.347656 " fill-opacity="1" fill-rule="nonzero"/></g></svg>