<svg xmlns="http://www.w3.org/2000/svg" xmlns:xlink="http://www.w3.org/1999/xlink" width="2000" zoomAndPan="magnify" viewBox="0 0 1500 1499.999933" height="2000" preserveAspectRatio="xMidYMid meet" version="1.0"><defs><clipPath id="85ec60892e"><path d="M 47 30 L 1453 30 L 1453 1476.84375 L 47 1476.84375 Z M 47 30 " clip-rule="nonzero"/></clipPath></defs><g clip-path="url(#85ec60892e)"><path fill="#000000" d="M 615.578125 898.222656 C 615.578125 1020.199219 516.371094 1119.230469 394.546875 1119.230469 C 272.707031 1119.230469 173.503906 1020.199219 173.503906 898.222656 C 173.503906 776.394531 272.707031 677.199219 394.546875 677.199219 C 516.371094 677.199219 615.578125 776.394531 615.578125 898.222656 Z M 1325.511719 1210.082031 C 1310.585938 1290.242188 1242.988281 1350.914062 1164.863281 1350.914062 C 1107.949219 1350.914062 1068.015625 1332.210938 1042.542969 1293.707031 C 1027.929688 1271.535156 1017.699219 1243.5625 1012.042969 1210.082031 C 987.832031 1071.902344 1037.980469 842.886719 1155.425781 569.050781 C 1213.273438 434.039062 1209.65625 301.992188 1145.210938 197.144531 C 1086.40625 101.894531 980.453125 38.222656 868.679688 31.304688 C 741.976562 23.296875 626.738281 79.261719 552.375 184.410156 C 480.054688 287.21875 456.488281 422.082031 482.742188 562.929688 C 454.597656 555.535156 425.046875 551.457031 394.546875 551.457031 C 203.386719 551.457031 47.75 707.0625 47.75 898.222656 C 47.75 1035.289062 127.617188 1153.800781 243.15625 1210.082031 C 288.910156 1232.402344 340.300781 1244.972656 394.546875 1244.972656 C 448.777344 1244.972656 500.1875 1232.402344 545.941406 1210.082031 C 661.480469 1153.800781 741.347656 1035.289062 741.347656 898.222656 C 741.347656 803.585938 703.140625 717.757812 641.347656 655.042969 C 578.941406 506.5 583.984375 357.941406 655.195312 256.875 C 704.398438 187.078125 777.335938 151.410156 860.816406 156.75 C 932.507812 161.308594 1000.417969 202.019531 1037.980469 263.175781 C 1081.066406 333.117188 1081.695312 421.765625 1039.871094 519.386719 C 947.601562 734.574219 858.148438 1006.984375 884.714844 1210.082031 C 892.109375 1267.457031 908.925781 1319.324219 937.535156 1362.871094 C 986.570312 1437.375 1065.179688 1476.675781 1164.863281 1476.675781 C 1310.898438 1476.675781 1436.191406 1360.035156 1452.542969 1210.082031 L 1325.511719 1210.082031 " fill-opacity="1" fill-rule="nonzero"/></g></svg>