<svg xmlns="http://www.w3.org/2000/svg" xmlns:xlink="http://www.w3.org/1999/xlink" width="2000" zoomAndPan="magnify" viewBox="0 0 1500 1199.999942" height="1600" preserveAspectRatio="xMidYMid meet" version="1.0"><defs><clipPath id="d109eeefa0"><path d="M 20.722656 36.839844 L 1479.445312 36.839844 L 1479.445312 882 L 20.722656 882 Z M 20.722656 36.839844 " clip-rule="nonzero"/></clipPath><clipPath id="cd65ca0d2a"><path d="M 20.722656 1065.019531 L 1479.445312 1065.019531 L 1479.445312 1163.117188 L 20.722656 1163.117188 Z M 20.722656 1065.019531 " clip-rule="nonzero"/></clipPath></defs><g clip-path="url(#d109eeefa0)"><path fill="#000000" d="M 1479.429688 783.117188 L 1479.429688 881.058594 L 939.867188 881.058594 L 939.867188 771.609375 C 1037.574219 708.070312 1096.828125 599.605469 1096.828125 481.464844 C 1096.828125 290.246094 941.339844 134.78125 750.101562 134.78125 C 558.867188 134.78125 403.261719 290.246094 403.261719 481.464844 C 403.261719 599.734375 462.632812 708.070312 560.339844 771.726562 L 560.339844 881.058594 L 20.789062 881.058594 L 20.789062 783.117188 L 423.101562 783.117188 C 348.410156 702.441406 305.3125 595.5625 305.3125 481.464844 C 305.3125 236.261719 504.878906 36.839844 750.101562 36.839844 C 995.339844 36.839844 1194.777344 236.261719 1194.777344 481.464844 C 1194.777344 595.5625 1151.679688 702.441406 1077.003906 783.117188 L 1479.429688 783.117188 " fill-opacity="1" fill-rule="nonzero"/></g><g clip-path="url(#cd65ca0d2a)"><path fill="#000000" d="M 20.722656 1163.117188 L 1479.429688 1163.117188 L 1479.429688 1065.175781 L 20.722656 1065.175781 L 20.722656 1163.117188 " fill-opacity="1" fill-rule="nonzero"/></g></svg>