<svg xmlns="http://www.w3.org/2000/svg" xmlns:xlink="http://www.w3.org/1999/xlink" width="1400" zoomAndPan="magnify" viewBox="0 0 1050 1499.999933" height="2000" preserveAspectRatio="xMidYMid meet" version="1.0"><defs><clipPath id="88395bc7a4"><path d="M 669 697 L 990 697 L 990 1470.546875 L 669 1470.546875 Z M 669 697 " clip-rule="nonzero"/></clipPath><clipPath id="c960aebbc8"><path d="M 57 697 L 379 697 L 379 1470.546875 L 57 1470.546875 Z M 57 697 " clip-rule="nonzero"/></clipPath><clipPath id="bf32c4f5a5"><path d="M 22.359375 696 L 1027.359375 696 L 1027.359375 810 L 22.359375 810 Z M 22.359375 696 " clip-rule="nonzero"/></clipPath></defs><path fill="#1a1a1a" d="M 724.84375 809.417969 C 694.011719 809.417969 669.011719 784.402344 669.011719 753.554688 C 669.011719 487.898438 749.660156 234.355469 890.289062 57.960938 C 909.515625 33.839844 944.652344 29.878906 968.757812 49.128906 C 992.863281 68.351562 996.8125 103.496094 977.585938 127.617188 C 852.445312 284.589844 780.667969 512.738281 780.667969 753.554688 C 780.667969 784.402344 755.675781 809.417969 724.84375 809.417969 " fill-opacity="1" fill-rule="nonzero"/><g clip-path="url(#88395bc7a4)"><path fill="#1a1a1a" d="M 933.976562 1470.179688 C 917.574219 1470.179688 901.320312 1462.976562 890.289062 1449.148438 C 749.660156 1272.753906 669.011719 1019.210938 669.011719 753.554688 C 669.011719 722.707031 694.011719 697.691406 724.84375 697.691406 C 755.675781 697.691406 780.667969 722.707031 780.667969 753.554688 C 780.667969 994.371094 852.445312 1222.507812 977.585938 1379.480469 C 996.8125 1403.601562 992.863281 1438.742188 968.757812 1457.992188 C 958.472656 1466.191406 946.179688 1470.179688 933.976562 1470.179688 " fill-opacity="1" fill-rule="nonzero"/></g><path fill="#1a1a1a" d="M 322.863281 809.417969 C 292.03125 809.417969 267.042969 784.402344 267.042969 753.554688 C 267.042969 512.738281 195.265625 284.589844 70.132812 127.617188 C 50.894531 103.496094 54.84375 68.351562 78.960938 49.128906 C 103.066406 29.890625 138.179688 33.839844 157.410156 57.960938 C 298.046875 234.355469 378.699219 487.898438 378.699219 753.554688 C 378.699219 784.402344 353.699219 809.417969 322.863281 809.417969 " fill-opacity="1" fill-rule="nonzero"/><g clip-path="url(#c960aebbc8)"><path fill="#1a1a1a" d="M 113.742188 1470.179688 C 101.527344 1470.179688 89.234375 1466.191406 78.960938 1457.992188 C 54.84375 1438.742188 50.894531 1403.601562 70.132812 1379.480469 C 195.265625 1222.507812 267.042969 994.371094 267.042969 753.554688 C 267.042969 722.707031 292.03125 697.691406 322.863281 697.691406 C 353.699219 697.691406 378.699219 722.707031 378.699219 753.554688 C 378.699219 1019.210938 298.046875 1272.753906 157.410156 1449.148438 C 146.386719 1462.976562 130.132812 1470.179688 113.742188 1470.179688 " fill-opacity="1" fill-rule="nonzero"/></g><g clip-path="url(#bf32c4f5a5)"><path fill="#1a1a1a" d="M 971.492188 809.1875 L 78.226562 809.1875 C 47.394531 809.1875 22.394531 783.839844 22.394531 752.992188 C 22.394531 722.144531 47.394531 696.796875 78.226562 696.796875 L 971.492188 696.796875 C 1002.324219 696.796875 1027.324219 722.144531 1027.324219 752.992188 C 1027.324219 783.839844 1002.324219 809.1875 971.492188 809.1875 " fill-opacity="1" fill-rule="nonzero"/></g></svg>