<svg xmlns="http://www.w3.org/2000/svg" xmlns:xlink="http://www.w3.org/1999/xlink" width="2000" zoomAndPan="magnify" viewBox="0 0 1500 1349.999938" height="1800" preserveAspectRatio="xMidYMid meet" version="1.0"><defs><clipPath id="397c7b04a0"><path d="M 15.53125 58.355469 L 1484.78125 58.355469 L 1484.78125 1291.382812 L 15.53125 1291.382812 Z M 15.53125 58.355469 " clip-rule="nonzero"/></clipPath></defs><g clip-path="url(#397c7b04a0)"><path fill="#000000" d="M 1484.882812 1176.027344 L 1254.109375 1060.6875 L 1254.109375 1122.757812 L 1245.851562 1122.757812 C 1214.28125 1122.613281 1185.089844 1120.75 1158.96875 1117.285156 C 1157.910156 1117.15625 1156.707031 1117.03125 1155.644531 1116.886719 C 1083.699219 1107.035156 1029.476562 1044.429688 1029.476562 971.433594 L 1029.476562 410.9375 C 1029.476562 305.183594 986.960938 202.878906 912.738281 130.292969 C 862.503906 81.273438 822.011719 58.355469 785.097656 58.355469 C 724.902344 58.355469 652.832031 128.199219 598.152344 194.113281 C 583.089844 171.082031 565.652344 149.632812 545.910156 130.320312 C 495.703125 81.261719 455.152344 58.414062 418.3125 58.414062 C 354.339844 58.414062 277.035156 137.148438 221.410156 206.371094 C 205.699219 184.496094 187.695312 164.125 167.570312 145.6875 L 87.53125 72.410156 L 15.53125 150.988281 L 95.550781 224.269531 C 155.179688 278.84375 189.363281 356.503906 189.363281 437.316406 L 189.363281 1138.320312 L 295.960938 1138.320312 L 295.960938 437.316406 C 295.960938 394.140625 288.730469 351.65625 275.183594 311.402344 C 326.988281 241.121094 392.542969 174.175781 418.113281 165.46875 C 423.417969 167.574219 440.105469 175.945312 471.390625 206.523438 C 525.246094 259.148438 556.148438 333.671875 556.148438 410.949219 L 556.148438 1138.320312 L 662.746094 1138.320312 L 662.746094 410.949219 C 662.746094 374.347656 657.527344 338.195312 647.78125 303.511719 C 698.597656 236.1875 760.320312 173.90625 784.957031 165.453125 C 790.160156 167.589844 806.949219 175.972656 838.121094 206.484375 C 892.089844 259.089844 922.863281 333.683594 922.863281 410.9375 L 922.863281 971.433594 C 922.863281 1057.082031 966.171875 1134.335938 1032.925781 1180.296875 C 1064.378906 1202.140625 1101.152344 1216.917969 1140.992188 1222.515625 C 1172.828125 1226.914062 1208.015625 1229.175781 1245.722656 1229.316406 L 1248.917969 1229.316406 C 1250.660156 1229.316406 1252.382812 1229.316406 1254.109375 1229.175781 L 1254.109375 1291.382812 L 1484.882812 1176.027344 " fill-opacity="1" fill-rule="nonzero"/></g></svg>