<svg xmlns="http://www.w3.org/2000/svg" xmlns:xlink="http://www.w3.org/1999/xlink" width="2000" zoomAndPan="magnify" viewBox="0 0 1500 1499.999933" height="2000" preserveAspectRatio="xMidYMid meet" version="1.0"><defs><clipPath id="d4e47282ad"><path d="M 24.066406 46.753906 L 1476 46.753906 L 1476 1453 L 24.066406 1453 Z M 24.066406 46.753906 " clip-rule="nonzero"/></clipPath></defs><g clip-path="url(#d4e47282ad)"><path fill="#000000" d="M 1124.308594 962.5 C 1124.308594 1165.410156 959.25 1330.429688 756.285156 1330.429688 C 553.316406 1330.429688 388.273438 1165.410156 388.273438 962.5 C 388.273438 759.585938 553.316406 594.585938 756.285156 594.585938 C 959.25 594.585938 1124.308594 759.585938 1124.308594 962.5 Z M 1237.101562 102.125 C 1152.878906 139.714844 1102.449219 206.183594 1056 273.105469 C 1051.871094 278.910156 1047.890625 284.710938 1043.925781 290.53125 C 975.757812 389.222656 921.796875 467.460938 777.226562 467.460938 L 725.875 467.460938 C 578.695312 468.992188 524.75 390.140625 456.132812 290.53125 C 452.148438 284.710938 448.183594 278.910156 444.054688 273.105469 C 397.589844 206.183594 347 139.714844 262.9375 102.125 C 146.324219 50.175781 50.347656 46.824219 24.066406 46.96875 L 24.066406 169.210938 C 34 169.046875 113.628906 169.355469 213.117188 213.664062 C 243.234375 227.121094 267.839844 247.898438 290.457031 273.105469 C 312.917969 298.316406 333.40625 327.957031 355.398438 359.886719 C 396.671875 419.78125 444.054688 487.929688 517.71875 534.527344 C 367.636719 618.421875 266 778.703125 266 962.5 C 266 1232.800781 485.925781 1452.667969 756.285156 1452.667969 C 1026.65625 1452.667969 1246.566406 1232.800781 1246.566406 962.5 C 1246.566406 776.089844 1141.882812 613.683594 988.285156 530.707031 C 1058.59375 484.417969 1104.429688 418.105469 1144.640625 359.886719 C 1166.488281 327.957031 1186.976562 298.316406 1209.4375 273.105469 C 1232.058594 247.898438 1256.660156 227.121094 1286.921875 213.664062 C 1386.574219 169.210938 1466.492188 169.046875 1475.972656 169.210938 L 1475.972656 46.96875 C 1449.695312 46.824219 1353.554688 50.175781 1237.101562 102.125 " fill-opacity="1" fill-rule="nonzero"/></g></svg>