<svg xmlns="http://www.w3.org/2000/svg" xmlns:xlink="http://www.w3.org/1999/xlink" width="2000" zoomAndPan="magnify" viewBox="0 0 1500 1349.999938" height="1800" preserveAspectRatio="xMidYMid meet" version="1.0"><defs><clipPath id="f229bcb025"><path d="M 57.941406 18.765625 L 1441.574219 18.765625 L 1441.574219 1330.964844 L 57.941406 1330.964844 Z M 57.941406 18.765625 " clip-rule="nonzero"/></clipPath></defs><g clip-path="url(#f229bcb025)"><path fill="#000000" d="M 1128 982.105469 L 1128 535.117188 L 1202.527344 460.351562 C 1221 441.84375 1246.90625 435.496094 1271.832031 443.394531 C 1296.820312 451.324219 1314.363281 471.484375 1318.785156 497.351562 C 1342.824219 637.957031 1319.445312 826.242188 1130.042969 1016.277344 C 1128.945312 1005.277344 1128.132812 993.992188 1128 982.105469 Z M 1431.855469 478.03125 C 1420.242188 410.066406 1372.222656 354.878906 1306.539062 334.039062 C 1243.640625 314.058594 1175.898438 329.269531 1127.546875 373.492188 C 1123.003906 268.167969 1078.789062 167.464844 1004.578125 94.882812 C 951.457031 42.957031 908.476562 18.765625 869.332031 18.765625 C 805.863281 18.765625 730.191406 91.632812 672.574219 160.917969 C 656.867188 137.101562 638.726562 114.910156 618.25 94.882812 C 565.144531 42.957031 522.164062 18.765625 483.007812 18.765625 C 415.535156 18.765625 334.34375 101.082031 275.640625 173.917969 C 259.257812 151.289062 240.589844 130.164062 219.707031 111.027344 L 135.417969 33.824219 L 57.941406 118.445312 L 142.230469 195.644531 C 204.769531 252.957031 240.632812 334.460938 240.632812 419.277344 L 240.632812 1157.996094 L 355.359375 1157.996094 L 355.359375 419.277344 C 355.359375 373.851562 347.804688 329.136719 333.621094 286.78125 C 387.613281 213.625 455.761719 143.84375 482.796875 134.105469 C 488.617188 136.515625 505.992188 145.574219 538.050781 176.929688 C 594.554688 232.164062 626.960938 310.371094 626.960938 391.484375 L 626.960938 1157.996094 L 741.671875 1157.996094 L 741.671875 391.484375 C 741.671875 353.011719 736.226562 315.023438 726.039062 278.550781 C 778.875 208.480469 843.023438 143.496094 869.09375 134.105469 C 874.929688 136.515625 892.304688 145.574219 924.394531 176.929688 C 980.882812 232.164062 1013.289062 310.386719 1013.289062 391.484375 L 1013.289062 982.753906 C 1013.800781 1027.425781 1020.011719 1067.734375 1030.316406 1103.964844 C 975.511719 1146.636719 911.515625 1189.050781 836.628906 1230.652344 L 892.335938 1330.964844 C 963.265625 1291.542969 1025.355469 1251.207031 1080.082031 1210.386719 C 1132.347656 1284.503906 1208.078125 1323.304688 1280.84375 1323.304688 L 1280.84375 1208.566406 C 1240.675781 1208.566406 1198.898438 1184.234375 1169.171875 1137.910156 C 1431.660156 902.511719 1462.664062 658.285156 1431.855469 478.03125 " fill-opacity="1" fill-rule="nonzero"/></g></svg>